<?xml version="1.0" encoding="UTF-8" standalone="no"?>
<svg
   xmlns:dc="http://purl.org/dc/elements/1.1/"
   xmlns:cc="http://creativecommons.org/ns#"
   xmlns:rdf="http://www.w3.org/1999/02/22-rdf-syntax-ns#"
   xmlns:svg="http://www.w3.org/2000/svg"
   xmlns="http://www.w3.org/2000/svg"
   xmlns:xlink="http://www.w3.org/1999/xlink"
   xmlns:sodipodi="http://sodipodi.sourceforge.net/DTD/sodipodi-0.dtd"
   xmlns:inkscape="http://www.inkscape.org/namespaces/inkscape"
   width="210mm"
   height="297mm"
   viewBox="0 0 210 297"
   version="1.1"
   id="svg885"
   inkscape:version="1.0.1 (0767f8302a, 2020-10-17)"
   sodipodi:docname="apple.svg">
  <defs
     id="defs879">
    <linearGradient
       inkscape:collect="always"
       id="linearGradient1703">
      <stop
         style="stop-color:#ccff00;stop-opacity:1;"
         offset="0"
         id="stop1699" />
      <stop
         style="stop-color:#ff0000;stop-opacity:1"
         offset="1"
         id="stop1701" />
    </linearGradient>
    <linearGradient
       inkscape:collect="always"
       xlink:href="#linearGradient1703"
       id="linearGradient1705"
       x1="11.457644"
       y1="63.612428"
       x2="111.26807"
       y2="64.231461"
       gradientUnits="userSpaceOnUse" />
  </defs>
  <sodipodi:namedview
     id="base"
     pagecolor="#ffffff"
     bordercolor="#666666"
     borderopacity="1.0"
     inkscape:pageopacity="0.0"
     inkscape:pageshadow="2"
     inkscape:zoom="3.7705926"
     inkscape:cx="67.53492"
     inkscape:cy="61.864728"
     inkscape:document-units="mm"
     inkscape:current-layer="layer1"
     inkscape:document-rotation="0"
     showgrid="false"
     inkscape:window-width="1299"
     inkscape:window-height="713"
     inkscape:window-x="67"
     inkscape:window-y="27"
     inkscape:window-maximized="1" />
  <metadata
     id="metadata882">
    <rdf:RDF>
      <cc:Work
         rdf:about="">
        <dc:format>image/svg+xml</dc:format>
        <dc:type
           rdf:resource="http://purl.org/dc/dcmitype/StillImage" />
        <dc:title></dc:title>
      </cc:Work>
    </rdf:RDF>
  </metadata>
  <g
     inkscape:label="Layer 1"
     inkscape:groupmode="layer"
     id="layer1">
    <path
       style="fill:none;stroke:#000000;stroke-width:0.264583px;stroke-linecap:butt;stroke-linejoin:miter;stroke-opacity:1"
       d="m 15.101565,6.7585002 c 1.081238,1.024469 2.053604,0.4015824 2.553483,0.0061"
       id="path1448" />
    <path
       style="fill:none;stroke:#000000;stroke-width:0.264583px;stroke-linecap:butt;stroke-linejoin:miter;stroke-opacity:1"
       d="M 16.081388,7.2496531 C 16.133241,5.5492895 15.68912,3.827178 15.68912,3.827178 l 1.054957,0.010361 c 0,0 -0.403753,1.6494321 -0.08666,3.2550057"
       id="path1450" />
    <path
       style="fill:none;fill-opacity:1;stroke:#000000;stroke-width:0.264583px;stroke-linecap:butt;stroke-linejoin:miter;stroke-opacity:1"
       d="M 16.034136,6.0861291 C 13.083483,5.9395621 9.0836037,5.9371213 5.617252,9.9151235 2.1509004,13.893126 2.5098166,17.212779 3.8638069,20.707236 c 1.3539904,3.494457 4.6575462,4.776753 6.6114691,5.842251 3.230965,1.761885 3.492809,0.690621 4.422301,0.633915 2.297238,-0.140149 0.903246,0.703372 2.884732,0.342271 0.747999,-0.136313 6.70001,-1.936484 9.090002,-4.976799 2.389989,-3.040315 4.489362,-7.620478 0.78818,-12.239499 C 23.959306,5.6903553 14.205989,5.9561836 16.96782,6.1110585"
       id="path1452"
       sodipodi:nodetypes="csssssssc" />
    <path
       style="fill:url(#linearGradient1705);fill-opacity:1;stroke:#000000;stroke-width:0.187827"
       d="m 63.100691,103.46397 c -2.135562,-1.18901 -2.231653,-1.21485 -4.787067,-1.28729 -2.401912,-0.0681 -2.477458,-0.0577 -4.500769,0.62107 -4.307694,1.44505 -6.384703,0.91537 -15.957979,-4.069642 -7.83603,-4.080389 -10.34851,-5.620194 -13.519624,-8.285667 -5.191197,-4.363451 -7.99364,-8.633818 -10.351531,-15.773675 -2.954954,-8.94781 -3.198234,-15.495968 -0.840163,-22.613944 2.587584,-7.810775 9.720567,-16.88328 17.176421,-21.846843 4.799861,-3.195397 9.683612,-5.097224 15.621534,-6.083327 3.159942,-0.524767 8.230052,-0.815736 11.428266,-0.655858 l 2.679303,0.133939 0.104724,1.527883 c 0.0576,0.840336 0.07274,1.559868 0.03365,1.59896 -0.126974,0.126974 -1.667345,-0.745795 -2.193778,-1.242988 -0.498816,-0.47111 -0.522567,-0.474887 -0.890777,-0.141663 -0.208063,0.188294 -0.378295,0.448875 -0.378295,0.579069 0,0.377214 2.199225,1.742656 3.341721,2.074788 1.891101,0.549758 3.8919,0.130703 6.080048,-1.273427 0.966103,-0.619946 1.072998,-0.87472 0.561304,-1.337798 -0.306409,-0.277295 -0.402689,-0.251796 -1.286826,0.340795 -0.525601,0.352283 -1.17272,0.723048 -1.438038,0.823922 -0.476422,0.181135 -0.483859,0.17016 -0.60018,-0.885572 -0.06478,-0.587939 -0.160735,-1.297933 -0.213239,-1.577763 -0.133766,-0.712957 0.379713,-0.801839 3.075441,-0.532346 17.024307,1.701926 31.152537,7.564788 37.645763,15.622053 3.67437,4.559417 6.06156,9.420458 7.16018,14.580302 0.52642,2.472379 0.4716,8.587964 -0.10086,11.25192 -1.67378,7.788954 -6.54058,16.675106 -12.222281,22.316308 -3.330425,3.306685 -7.300774,6.02509 -13.123105,8.985082 -6.89024,3.502905 -15.639674,6.741822 -19.760121,7.314922 -1.916701,0.26659 -1.978341,0.26293 -2.743719,-0.16321 z"
       id="path1697"
       transform="scale(0.26458333)" />
    <path
       style="fill:#5a2200;fill-opacity:1;stroke:#000000;stroke-width:0.187827"
       d="m 61.151393,21.662757 c -0.187839,-1.322318 -0.886921,-5.689675 -0.989512,-6.181748 l -0.110031,-0.527759 1.196239,0.130667 c 0.657932,0.07187 1.217404,0.147678 1.24327,0.16847 0.02587,0.02079 -0.03637,0.452652 -0.138316,0.959688 -0.101941,0.507037 -0.241312,2.033529 -0.309713,3.392204 -0.109362,2.172315 -0.165602,2.481103 -0.466201,2.559711 -0.266593,0.06972 -0.360304,-0.04061 -0.425736,-0.501233 z"
       id="path1707"
       transform="scale(0.26458333)" />
    <path
       style="fill:#5a2200;fill-opacity:1;stroke:#000000;stroke-width:0.187827"
       d="m 61.410839,25.713549 c -0.0011,-0.696212 -0.0441,-1.603398 -0.09547,-2.015969 -0.05137,-0.41257 -0.04341,-0.644641 0.01769,-0.515713 0.0611,0.128929 0.218994,0.234415 0.35087,0.234415 0.157385,0 0.282877,0.420726 0.36522,1.224437 0.069,0.67344 0.175588,1.475139 0.236871,1.781554 0.100922,0.50461 0.06503,0.557117 -0.380848,0.557117 -0.482518,0 -0.492313,-0.02508 -0.494336,-1.265841 z"
       id="path1709"
       transform="scale(0.26458333)" />
    <path
       style="fill:#5a2200;fill-opacity:1;stroke:#000000;stroke-width:0.066407"
       d="m 61.94072,23.492267 c -0.0277,-0.08196 -0.121735,-0.166942 -0.208975,-0.188837 -0.08724,-0.0219 -0.193331,-0.08164 -0.235758,-0.13276 -0.04243,-0.05112 -0.13316,-0.09295 -0.201628,-0.09295 -0.104181,0 -0.124634,-0.05137 -0.125392,-0.314937 -4.98e-4,-0.173216 -0.01947,-0.389528 -0.04217,-0.480694 -0.03394,-0.136316 -0.02553,-0.151036 0.04732,-0.08288 0.140008,0.130991 0.508665,0.100393 0.664185,-0.05513 l 0.138005,-0.138005 -0.04707,0.601645 c -0.03396,0.434125 -0.02471,0.628584 0.03323,0.698392 0.04416,0.05321 0.06866,0.150393 0.05445,0.215961 -0.02217,0.102265 -0.033,0.09803 -0.0762,-0.02981 z"
       id="path1713"
       transform="scale(0.26458333)" />
  </g>
</svg>
