<?xml version="1.0" encoding="UTF-8" standalone="no"?>
<svg
   xmlns:dc="http://purl.org/dc/elements/1.1/"
   xmlns:cc="http://creativecommons.org/ns#"
   xmlns:rdf="http://www.w3.org/1999/02/22-rdf-syntax-ns#"
   xmlns:svg="http://www.w3.org/2000/svg"
   xmlns="http://www.w3.org/2000/svg"
   xmlns:sodipodi="http://sodipodi.sourceforge.net/DTD/sodipodi-0.dtd"
   xmlns:inkscape="http://www.inkscape.org/namespaces/inkscape"
   width="210mm"
   height="297mm"
   viewBox="0 0 210 297"
   version="1.1"
   id="svg8"
   inkscape:version="1.0.1 (0767f8302a, 2020-10-17)"
   sodipodi:docname="cheese.svg">
  <defs
     id="defs2" />
  <sodipodi:namedview
     id="base"
     pagecolor="#ffffff"
     bordercolor="#666666"
     borderopacity="1.0"
     inkscape:pageopacity="0.0"
     inkscape:pageshadow="2"
     inkscape:zoom="5.4224218"
     inkscape:cx="56.102147"
     inkscape:cy="48.588088"
     inkscape:document-units="mm"
     inkscape:current-layer="layer1"
     inkscape:document-rotation="0"
     showgrid="false"
     inkscape:window-width="1299"
     inkscape:window-height="713"
     inkscape:window-x="67"
     inkscape:window-y="27"
     inkscape:window-maximized="1" />
  <metadata
     id="metadata5">
    <rdf:RDF>
      <cc:Work
         rdf:about="">
        <dc:format>image/svg+xml</dc:format>
        <dc:type
           rdf:resource="http://purl.org/dc/dcmitype/StillImage" />
        <dc:title></dc:title>
      </cc:Work>
    </rdf:RDF>
  </metadata>
  <g
     inkscape:label="Layer 1"
     inkscape:groupmode="layer"
     id="layer1">
    <path
       style="fill:none;stroke:#000000;stroke-width:0.264583px;stroke-linecap:butt;stroke-linejoin:miter;stroke-opacity:1"
       d="M 25.826885,1.7590388 3.1845332,11.774409 3.3284922,21.0634 30.644073,19.689305 l -0.0061,-9.186392 -7.141818,0.398227"
       id="path837"
       sodipodi:nodetypes="cccccc" />
    <path
       style="fill:none;stroke:#000000;stroke-width:0.264583px;stroke-linecap:butt;stroke-linejoin:miter;stroke-opacity:1"
       d="m 25.826885,1.7590388 c 3.605298,2.0716079 4.739229,6.0736782 4.811087,8.7438742"
       id="path843" />
    <path
       style="fill:none;stroke:#000000;stroke-width:0.264583px;stroke-linecap:butt;stroke-linejoin:miter;stroke-opacity:1"
       d="M 23.496155,10.901137 C 23.465271,9.5624206 20.369788,9.6536097 20.153522,11.224904"
       id="path845"
       sodipodi:nodetypes="cc" />
    <path
       style="fill:none;stroke:#000000;stroke-width:0.264583px;stroke-linecap:butt;stroke-linejoin:miter;stroke-opacity:1"
       d="m 20.153522,11.224904 c 0.05058,2.368205 3.762977,1.68178 3.342633,-0.323767"
       id="path847"
       sodipodi:nodetypes="cc" />
    <ellipse
       style="fill:#eaea22;fill-opacity:1;stroke-width:0.265;stroke-miterlimit:4;stroke-dasharray:none;stroke:#000000;stroke-opacity:1"
       id="path849"
       cx="9.7705393"
       cy="16.036238"
       rx="1.5595731"
       ry="1.3597445" />
    <path
       style="fill:#eaea22;stroke:#000000;stroke-width:0.264583px;stroke-linecap:butt;stroke-linejoin:miter;stroke-opacity:1;fill-opacity:1"
       d="M 3.1845332,11.774409 20.153522,11.224904"
       id="path851"
       sodipodi:nodetypes="cc" />
    <path
       style="fill:#eaea22;fill-opacity:1;stroke:#000000;stroke-width:0.18471;stroke-miterlimit:4;stroke-dasharray:none;stroke-opacity:1"
       d="M 13.122239,76.679793 C 13.11664,75.378937 13.003187,67.758489 12.870121,59.745464 12.737055,51.732439 12.6468,45.153596 12.669555,45.125812 c 0.0335,-0.0409 61.201015,-2.064387 62.542539,-2.06897 0.315648,-0.0011 0.414669,0.144343 0.511769,0.751582 0.298918,1.869327 1.830024,3.692591 3.68313,4.385927 2.137686,0.799811 5.261494,0.416542 7.307889,-0.896626 1.6521,-1.060149 2.767184,-2.956211 2.767184,-4.705247 0,-0.45535 0.06224,-0.830376 0.138315,-0.83339 0.07607,-0.003 5.823044,-0.32615 12.771049,-0.718079 6.948,-0.391929 12.67422,-0.673035 12.72494,-0.624681 0.0507,0.04836 0.12037,7.581087 0.15479,16.739405 l 0.0626,16.651487 -1.72236,0.119137 c -0.94729,0.06553 -5.87179,0.323818 -10.94332,0.573985 -27.801588,1.371382 -86.535368,4.330287 -87.921973,4.429353 l -1.61367,0.115292 z M 39.766336,65.770348 c 1.445638,-0.64864 2.419314,-1.565234 3.072806,-2.892663 0.536751,-1.090301 0.579355,-1.306221 0.499384,-2.530945 -0.05547,-0.849471 -0.227362,-1.608626 -0.470205,-2.076631 -0.552399,-1.064573 -1.813373,-2.20867 -3.087294,-2.801135 -0.96767,-0.450035 -1.32636,-0.514401 -2.858502,-0.512948 -1.538231,0.0015 -1.893545,0.06659 -2.912256,0.533869 -2.675889,1.227408 -4.076965,3.98337 -3.352009,6.593512 0.460906,1.659456 2.182882,3.340524 4.025996,3.930354 1.270124,0.406463 3.916143,0.279728 5.08208,-0.243413 z"
       id="path853"
       transform="scale(0.26458333)" />
    <path
       style="fill:#eaea22;fill-opacity:1;stroke:#000000;stroke-width:0.18471;stroke-miterlimit:4;stroke-dasharray:none;stroke-opacity:1"
       d="M 15.990918,43.449417 C 16.396641,43.257772 34.778649,35.115619 56.839825,25.355744 78.901001,15.595869 97.085796,7.5384234 97.250483,7.4503089 97.47022,7.3327391 97.98997,7.5800073 99.203376,8.3793897 106.46471,13.163096 111.92,21.571579 114.09949,31.339419 c 0.54602,2.447122 1.00775,5.62193 1.01328,6.967285 0.003,0.744278 -0.05,0.875992 -0.35302,0.875992 -0.40477,0 -23.01297,1.241617 -24.481921,1.34452 -0.892256,0.0625 -0.964012,0.03595 -1.072674,-0.396995 -0.457526,-1.822932 -2.744124,-2.976138 -5.90114,-2.976138 -1.890094,0 -3.150089,0.30351 -4.728597,1.139033 -1.274276,0.674488 -1.862956,1.271441 -2.53141,2.566988 l -0.514248,0.996674 -1.276616,0.049 c -0.70214,0.02695 -12.895043,0.419945 -27.09534,0.873329 -14.200297,0.453386 -27.188036,0.868083 -28.861643,0.92155 l -3.04292,0.09721 z"
       id="path855"
       transform="scale(0.26458333)" />
    <path
       style="fill:#eaea22;fill-opacity:1;stroke:#000000;stroke-width:0.18471;stroke-miterlimit:4;stroke-dasharray:none;stroke-opacity:1"
       d="m 80.033454,47.167618 c -1.707327,-0.569421 -2.898469,-2.050769 -3.184906,-3.960868 -0.491341,-3.276493 4.536463,-5.89712 8.79211,-4.582684 1.59306,0.492046 2.297326,1.225625 2.564577,2.671325 0.110057,0.595351 0.144978,1.376299 0.0776,1.735441 -0.59381,3.16528 -4.815171,5.282149 -8.249384,4.136786 z"
       id="path857"
       transform="scale(0.26458333)" />
    <ellipse
       style="fill:#eaea22;fill-opacity:1;stroke:#000000;stroke-width:0.264999;stroke-miterlimit:4;stroke-dasharray:none;stroke-opacity:1"
       id="path859"
       cx="24.89168"
       cy="6.5252261"
       rx="1.9072964"
       ry="0.99132282" />
  </g>
</svg>
